<svg width="550" height="69.304" viewBox="0 0 550 69.304" xmlns="http://www.w3.org/2000/svg"><g id="svgGroup" stroke-linecap="round" fill-rule="evenodd" font-size="9pt" stroke="#ed743c" stroke-width="0.25mm" fill="#ff7b00" style="stroke:#ed743c;stroke-width:0.25mm;fill:#ff7b00"><path d="M 436.2 47.002 L 436.6 47.202 Q 438.6 42.302 441.7 37.752 A 32.271 32.271 0 0 1 446.529 32.12 A 28.59 28.59 0 0 1 448.85 30.202 Q 452.9 27.202 457.7 27.202 A 12.63 12.63 0 0 1 460.646 27.525 A 8.271 8.271 0 0 1 464.95 30.002 Q 467.5 32.802 467.5 36.702 A 11.733 11.733 0 0 1 464.428 44.648 A 15.103 15.103 0 0 1 464.2 44.902 A 23.411 23.411 0 0 1 459.576 48.754 A 30.866 30.866 0 0 1 455.6 50.902 A 14.431 14.431 0 0 0 457.061 53.771 A 11.129 11.129 0 0 0 459.3 56.252 A 8.532 8.532 0 0 0 463.112 57.992 A 11.919 11.919 0 0 0 465.4 58.202 Q 466.6 58.202 467.4 58.002 A 1.132 1.132 0 0 1 467.567 57.976 Q 468.67 57.891 468.699 60.366 A 11.574 11.574 0 0 1 468.7 60.502 A 10.226 10.226 0 0 1 468.569 62.083 Q 468.42 63.036 468.1 64.102 A 6.929 6.929 0 0 1 466.17 67.181 A 8.554 8.554 0 0 1 465.75 67.552 A 5.532 5.532 0 0 1 463.982 68.511 Q 462.537 69.002 460.5 69.002 A 13.099 13.099 0 0 1 457.033 68.565 A 9.849 9.849 0 0 1 452.85 66.252 A 18.526 18.526 0 0 1 448.74 60.565 A 21.835 21.835 0 0 1 448.25 59.452 A 51.627 51.627 0 0 1 445.937 52.403 A 47.113 47.113 0 0 1 445.7 51.402 A 7.615 7.615 0 0 1 445.596 50.817 Q 445.172 47.685 448.2 47.502 A 14.75 14.75 0 0 0 451.146 46.873 A 11.064 11.064 0 0 0 454.1 45.402 Q 456.5 43.702 456.5 40.902 Q 456.5 37.702 453.4 37.702 Q 451.453 37.702 449.458 39.076 A 10.77 10.77 0 0 0 449.35 39.152 A 21.642 21.642 0 0 0 445.66 42.477 A 23.936 23.936 0 0 0 445.55 42.602 Q 443.8 44.602 442.7 46.502 Q 441.2 49.102 440.1 51.602 Q 439 54.102 438.3 56.602 L 438.3 60.602 A 10.433 10.433 0 0 1 437.925 63.468 A 8.107 8.107 0 0 1 436.15 66.702 A 7.097 7.097 0 0 1 431.092 69.084 A 9.724 9.724 0 0 1 430.5 69.102 A 3.723 3.723 0 0 1 428.652 68.604 A 4.555 4.555 0 0 1 428.4 68.452 Q 427.437 67.826 427.587 66.782 A 2.201 2.201 0 0 1 427.6 66.702 Q 429.1 58.702 430.15 50.452 Q 431.2 42.202 431.2 33.802 Q 431.2 26.402 430.7 20.402 Q 430.2 14.402 427.5 8.902 Q 427.117 8.06 426.852 7.393 A 20.514 20.514 0 0 1 426.7 7.002 A 5.062 5.062 0 0 1 426.485 6.274 A 3.727 3.727 0 0 1 426.4 5.502 A 3.607 3.607 0 0 1 426.916 3.685 Q 427.466 2.73 428.6 1.802 Q 430.8 0.002 433.3 0.002 A 4.377 4.377 0 0 1 437.083 1.965 Q 437.597 2.697 437.969 3.702 A 11.068 11.068 0 0 1 438.2 4.402 A 24.299 24.299 0 0 1 438.857 7.385 Q 439.5 11.355 439.5 17.402 Q 439.5 26.213 438.622 33.085 A 80.385 80.385 0 0 1 438.3 35.352 A 370.812 370.812 0 0 1 437.719 38.949 Q 436.875 44.002 436.2 47.002 Z M 74.2 47.002 L 74.5 47.102 A 55.293 55.293 0 0 1 79.261 37.394 A 51.603 51.603 0 0 1 79.35 37.252 A 28.839 28.839 0 0 1 82.857 32.687 A 23.792 23.792 0 0 1 86 29.902 A 14.377 14.377 0 0 1 94.489 27.105 A 17.659 17.659 0 0 1 94.8 27.102 A 14.055 14.055 0 0 1 98.009 27.446 Q 100.549 28.042 102.285 29.665 A 8.85 8.85 0 0 1 102.9 30.302 A 11.22 11.22 0 0 1 105.593 36.488 A 14.99 14.99 0 0 1 105.7 38.302 A 15.961 15.961 0 0 1 105.409 41.391 A 14.401 14.401 0 0 1 105.25 42.102 Q 104.8 43.902 104.3 45.602 Q 103.8 47.202 103.45 48.902 Q 103.1 50.602 103.1 52.302 Q 103.1 58.002 108.5 60.002 A 3.217 3.217 0 0 1 109.141 60.36 Q 109.518 60.637 109.707 60.994 A 1.694 1.694 0 0 1 109.9 61.802 Q 109.9 62.702 109.3 64.402 Q 108.7 66.102 107.1 67.552 Q 105.819 68.713 103.576 68.944 A 11.471 11.471 0 0 1 102.4 69.002 A 8.976 8.976 0 0 1 99.705 68.618 A 6.98 6.98 0 0 1 96.2 66.152 A 10.285 10.285 0 0 1 94.297 61.924 A 14.637 14.637 0 0 1 94 58.902 Q 94 56.402 94.55 53.852 A 98.245 98.245 0 0 1 95.257 50.801 A 80.208 80.208 0 0 1 95.7 49.102 Q 96.1 47.402 96.45 45.752 A 17.897 17.897 0 0 0 96.689 44.375 Q 96.779 43.691 96.796 43.08 A 10.077 10.077 0 0 0 96.8 42.802 A 6.328 6.328 0 0 0 96.554 40.954 Q 95.933 38.922 93.747 38.39 A 7.408 7.408 0 0 0 92 38.202 A 9.902 9.902 0 0 0 85.001 41.059 A 12.95 12.95 0 0 0 84.8 41.252 A 24.501 24.501 0 0 0 81.316 45.607 A 31.449 31.449 0 0 0 79.5 48.902 Q 77.3 53.502 75.9 58.202 L 75.9 60.602 A 10.967 10.967 0 0 1 75.562 63.394 A 8.244 8.244 0 0 1 73.85 66.702 Q 71.8 69.102 68.3 69.102 Q 64.813 69.102 65.079 66.85 A 3.147 3.147 0 0 1 65.1 66.702 Q 66.2 62.402 66.95 57.952 A 53.596 53.596 0 0 0 67.641 51.736 A 46.511 46.511 0 0 0 67.7 49.402 Q 67.7 44.102 67.05 41.652 A 12.483 12.483 0 0 0 66.649 40.392 Q 66.166 39.131 65.509 38.45 A 3.16 3.16 0 0 0 65.3 38.252 Q 64.2 37.302 62.6 36.802 Q 61.9 36.502 61.35 36.002 A 1.634 1.634 0 0 1 60.849 35.101 A 2.438 2.438 0 0 1 60.8 34.602 A 4.266 4.266 0 0 1 61.007 33.331 Q 61.277 32.465 61.9 31.502 A 8.738 8.738 0 0 1 63.64 29.558 A 11.518 11.518 0 0 1 65.05 28.552 Q 67.1 27.302 69.7 27.302 A 7.631 7.631 0 0 1 71.447 27.488 Q 72.598 27.759 73.397 28.425 A 4.268 4.268 0 0 1 74.4 29.652 A 9.433 9.433 0 0 1 75.286 31.974 Q 75.7 33.657 75.7 35.802 Q 75.7 38.302 75.2 41.402 Q 74.7 44.502 74.2 47.002 Z M 175.4 47.002 L 175.7 47.102 A 55.293 55.293 0 0 1 180.461 37.394 A 51.603 51.603 0 0 1 180.55 37.252 A 28.839 28.839 0 0 1 184.057 32.687 A 23.792 23.792 0 0 1 187.2 29.902 A 14.377 14.377 0 0 1 195.689 27.105 A 17.659 17.659 0 0 1 196 27.102 A 14.055 14.055 0 0 1 199.209 27.446 Q 201.749 28.042 203.485 29.665 A 8.85 8.85 0 0 1 204.1 30.302 A 11.22 11.22 0 0 1 206.793 36.488 A 14.99 14.99 0 0 1 206.9 38.302 A 15.961 15.961 0 0 1 206.609 41.391 A 14.401 14.401 0 0 1 206.45 42.102 Q 206 43.902 205.5 45.602 Q 205 47.202 204.65 48.902 Q 204.3 50.602 204.3 52.302 Q 204.3 58.002 209.7 60.002 A 3.217 3.217 0 0 1 210.341 60.36 Q 210.718 60.637 210.907 60.994 A 1.694 1.694 0 0 1 211.1 61.802 Q 211.1 62.702 210.5 64.402 Q 209.9 66.102 208.3 67.552 Q 207.019 68.713 204.776 68.944 A 11.471 11.471 0 0 1 203.6 69.002 A 8.976 8.976 0 0 1 200.905 68.618 A 6.98 6.98 0 0 1 197.4 66.152 A 10.285 10.285 0 0 1 195.497 61.924 A 14.637 14.637 0 0 1 195.2 58.902 Q 195.2 56.402 195.75 53.852 A 98.245 98.245 0 0 1 196.457 50.801 A 80.208 80.208 0 0 1 196.9 49.102 Q 197.3 47.402 197.65 45.752 A 17.897 17.897 0 0 0 197.889 44.375 Q 197.979 43.691 197.996 43.08 A 10.077 10.077 0 0 0 198 42.802 A 6.328 6.328 0 0 0 197.754 40.954 Q 197.133 38.922 194.947 38.39 A 7.408 7.408 0 0 0 193.2 38.202 A 9.902 9.902 0 0 0 186.201 41.059 A 12.95 12.95 0 0 0 186 41.252 A 24.501 24.501 0 0 0 182.516 45.607 A 31.449 31.449 0 0 0 180.7 48.902 Q 178.5 53.502 177.1 58.202 L 177.1 60.602 A 10.967 10.967 0 0 1 176.762 63.394 A 8.244 8.244 0 0 1 175.05 66.702 Q 173 69.102 169.5 69.102 Q 166.013 69.102 166.279 66.85 A 3.147 3.147 0 0 1 166.3 66.702 Q 167.4 62.402 168.15 57.952 A 53.596 53.596 0 0 0 168.841 51.736 A 46.511 46.511 0 0 0 168.9 49.402 Q 168.9 44.102 168.25 41.652 A 12.483 12.483 0 0 0 167.849 40.392 Q 167.366 39.131 166.709 38.45 A 3.16 3.16 0 0 0 166.5 38.252 Q 165.4 37.302 163.8 36.802 Q 163.1 36.502 162.55 36.002 A 1.634 1.634 0 0 1 162.049 35.101 A 2.438 2.438 0 0 1 162 34.602 A 4.266 4.266 0 0 1 162.207 33.331 Q 162.477 32.465 163.1 31.502 A 8.738 8.738 0 0 1 164.84 29.558 A 11.518 11.518 0 0 1 166.25 28.552 Q 168.3 27.302 170.9 27.302 A 7.631 7.631 0 0 1 172.647 27.488 Q 173.798 27.759 174.597 28.425 A 4.268 4.268 0 0 1 175.6 29.652 A 9.433 9.433 0 0 1 176.486 31.974 Q 176.9 33.657 176.9 35.802 Q 176.9 38.302 176.4 41.402 Q 175.9 44.502 175.4 47.002 Z M 15.659 68.451 A 28.383 28.383 0 0 0 22.8 69.302 A 34.185 34.185 0 0 0 25.237 69.216 A 28.541 28.541 0 0 0 35.9 66.402 Q 41.8 63.502 46.05 58.402 A 34.359 34.359 0 0 0 48.17 55.573 A 37.973 37.973 0 0 0 52.6 46.502 A 41.781 41.781 0 0 0 53.838 42.033 A 47.807 47.807 0 0 0 54.9 31.802 A 49.875 49.875 0 0 0 54.834 29.203 Q 54.597 24.665 53.514 20.859 A 25.047 25.047 0 0 0 48.15 10.852 Q 43.51 5.661 35.726 4.039 A 37.895 37.895 0 0 0 28 3.302 A 44.11 44.11 0 0 0 23.223 3.551 A 33.728 33.728 0 0 0 17.7 4.602 A 41.584 41.584 0 0 0 13.651 5.964 A 30.796 30.796 0 0 0 9.7 7.852 A 52.143 52.143 0 0 0 8.698 8.442 Q 5.967 10.09 4.1 11.702 A 13.593 13.593 0 0 0 3.485 12.308 Q 2.968 12.85 2.436 13.514 A 26.739 26.739 0 0 0 1.4 14.902 Q 0.481 16.214 0.166 18.087 A 12.73 12.73 0 0 0 0 20.202 A 13.63 13.63 0 0 0 0.006 20.608 Q 0.059 22.4 0.596 23.426 A 2.419 2.419 0 0 0 2.9 24.802 A 3.822 3.822 0 0 0 4.164 24.577 Q 5.292 24.183 6.5 23.102 A 47.283 47.283 0 0 0 4.832 26.084 A 39.706 39.706 0 0 0 1.65 34.402 Q 0.2 40.102 0.2 45.402 Q 0.2 57.202 6.35 63.252 A 20.272 20.272 0 0 0 15.659 68.451 Z M 307.33 68.894 A 27.454 27.454 0 0 0 311.6 69.202 A 36.123 36.123 0 0 0 313.48 69.154 A 30.523 30.523 0 0 0 325.5 66.102 A 30.306 30.306 0 0 0 326.744 65.474 A 25.29 25.29 0 0 0 335.8 57.502 Q 339.6 52.002 339.6 45.302 A 20.984 20.984 0 0 0 339.392 42.278 Q 337.989 32.644 327.1 30.902 A 21.37 21.37 0 0 0 327.482 30.574 A 18.595 18.595 0 0 0 331.9 24.902 Q 333.6 21.502 333.6 17.502 A 17.102 17.102 0 0 0 333.574 16.548 A 12.506 12.506 0 0 0 329.3 7.502 Q 326.34 4.886 321.483 4.071 A 28.956 28.956 0 0 0 316.7 3.702 A 38.201 38.201 0 0 0 314.191 3.783 A 32.696 32.696 0 0 0 307.15 5.002 A 43.803 43.803 0 0 0 305.762 5.432 Q 304.04 5.998 302.579 6.647 A 22.925 22.925 0 0 0 299.8 8.102 Q 298.078 9.111 296.938 10.209 A 8.596 8.596 0 0 0 295.65 11.752 A 7.64 7.64 0 0 0 294.631 14.253 A 10.43 10.43 0 0 0 294.4 16.502 Q 294.4 18.513 294.899 19.401 A 1.215 1.215 0 0 0 296 20.102 Q 296.8 20.102 298.5 19.102 A 46.303 46.303 0 0 1 298.507 19.174 Q 298.8 22.46 298.8 27.702 Q 298.8 32.302 298.4 36.152 Q 298.175 38.318 297.824 40.815 A 188.179 188.179 0 0 1 297.2 44.902 A 390.944 390.944 0 0 0 296.907 46.929 Q 296.606 49.052 296.4 50.702 Q 296.213 52.202 296.142 53.429 A 24.09 24.09 0 0 0 296.1 54.802 A 19.493 19.493 0 0 0 296.497 58.837 A 13.451 13.451 0 0 0 299.7 65.252 Q 302.295 68.099 307.33 68.894 Z M 228.371 68.788 A 21.367 21.367 0 0 0 233.2 69.302 Q 242.4 69.302 249.1 62.902 Q 251.802 60.343 252.583 58.491 A 3.601 3.601 0 0 0 252.9 57.102 A 2.933 2.933 0 0 0 252.894 56.918 A 2.195 2.195 0 0 0 252.25 55.452 A 2.143 2.143 0 0 0 251.421 54.931 A 2.517 2.517 0 0 0 250.6 54.802 Q 249.756 54.802 248.814 55.395 A 6.936 6.936 0 0 0 248 56.002 A 15.198 15.198 0 0 1 246.033 57.364 A 18.328 18.328 0 0 1 242.75 58.852 Q 239.7 59.902 236.8 59.902 A 14.45 14.45 0 0 1 234.51 59.727 A 10.473 10.473 0 0 1 228.95 57.102 A 9.325 9.325 0 0 1 226.389 53.203 A 11.515 11.515 0 0 1 225.8 49.702 A 12.689 12.689 0 0 0 226.88 50.39 Q 228.883 51.528 231.41 52.022 A 21.83 21.83 0 0 0 235.6 52.402 A 23.433 23.433 0 0 0 237.406 52.333 A 19.454 19.454 0 0 0 244.5 50.452 A 19.816 19.816 0 0 0 245.711 49.81 A 16.505 16.505 0 0 0 250.9 45.202 Q 253.3 41.902 253.3 38.002 A 12.631 12.631 0 0 0 253.268 37.098 A 9.494 9.494 0 0 0 249.7 30.152 A 11.47 11.47 0 0 0 248.485 29.283 Q 245.139 27.202 240.1 27.202 Q 233.8 27.202 228.55 30.652 Q 223.3 34.102 220.2 39.902 A 25.558 25.558 0 0 0 218.435 44.043 A 28.117 28.117 0 0 0 217.1 52.802 A 27.704 27.704 0 0 0 217.111 53.57 Q 217.185 56.23 217.775 58.47 A 14.29 14.29 0 0 0 221.35 64.952 Q 224.139 67.807 228.371 68.788 Z M 486.571 68.788 A 21.367 21.367 0 0 0 491.4 69.302 Q 500.6 69.302 507.3 62.902 Q 510.002 60.343 510.783 58.491 A 3.601 3.601 0 0 0 511.1 57.102 A 2.933 2.933 0 0 0 511.094 56.918 A 2.195 2.195 0 0 0 510.45 55.452 A 2.143 2.143 0 0 0 509.621 54.931 A 2.517 2.517 0 0 0 508.8 54.802 Q 507.956 54.802 507.014 55.395 A 6.936 6.936 0 0 0 506.2 56.002 A 15.198 15.198 0 0 1 504.233 57.364 A 18.328 18.328 0 0 1 500.95 58.852 Q 497.9 59.902 495 59.902 A 14.45 14.45 0 0 1 492.71 59.727 A 10.473 10.473 0 0 1 487.15 57.102 A 9.325 9.325 0 0 1 484.589 53.203 A 11.515 11.515 0 0 1 484 49.702 A 12.689 12.689 0 0 0 485.08 50.39 Q 487.083 51.528 489.61 52.022 A 21.83 21.83 0 0 0 493.8 52.402 A 23.433 23.433 0 0 0 495.606 52.333 A 19.454 19.454 0 0 0 502.7 50.452 A 19.816 19.816 0 0 0 503.911 49.81 A 16.505 16.505 0 0 0 509.1 45.202 Q 511.5 41.902 511.5 38.002 A 12.631 12.631 0 0 0 511.468 37.098 A 9.494 9.494 0 0 0 507.9 30.152 A 11.47 11.47 0 0 0 506.685 29.283 Q 503.339 27.202 498.3 27.202 Q 492 27.202 486.75 30.652 Q 481.5 34.102 478.4 39.902 A 25.558 25.558 0 0 0 476.635 44.043 A 28.117 28.117 0 0 0 475.3 52.802 A 27.704 27.704 0 0 0 475.311 53.57 Q 475.385 56.23 475.975 58.47 A 14.29 14.29 0 0 0 479.55 64.952 Q 482.339 67.807 486.571 68.788 Z M 119.4 67.402 A 4.134 4.134 0 0 0 120.431 68.251 Q 121.714 69.002 123.7 69.002 A 14.484 14.484 0 0 0 125.034 68.943 Q 127.5 68.715 129.05 67.602 A 12.253 12.253 0 0 0 129.278 67.434 Q 130.056 66.848 130.637 66.211 A 6.902 6.902 0 0 0 131.8 64.502 Q 132.588 62.829 132.6 62.027 A 1.644 1.644 0 0 0 132.6 62.002 A 2.462 2.462 0 0 0 132.59 61.772 Q 132.54 61.242 132.25 60.952 Q 132.01 60.711 131.604 60.447 A 8.195 8.195 0 0 0 131.2 60.202 A 19.477 19.477 0 0 1 129.785 59.308 Q 128.259 58.242 127.45 57.152 A 3.977 3.977 0 0 1 127.14 56.661 Q 126.561 55.581 126.381 53.824 A 16.958 16.958 0 0 1 126.3 52.102 A 25.484 25.484 0 0 1 126.301 51.966 Q 126.311 49.918 126.65 47.402 Q 127 44.802 127.4 41.902 Q 128 37.502 128.65 31.702 A 87.22 87.22 0 0 0 128.919 28.868 Q 129.3 24.05 129.3 18.002 A 132.237 132.237 0 0 0 129.298 17.316 Q 129.274 12.533 128.9 8.752 A 26.446 26.446 0 0 0 128.614 6.664 Q 128.387 5.404 128.049 4.354 A 11.271 11.271 0 0 0 127.2 2.352 A 5.798 5.798 0 0 0 126.881 1.839 Q 126.171 0.822 125.149 0.368 A 4.508 4.508 0 0 0 123.3 0.002 Q 121.7 0.002 120 0.852 A 11.883 11.883 0 0 0 118.944 1.447 A 9.584 9.584 0 0 0 117.15 2.902 A 5.947 5.947 0 0 0 117.038 3.022 Q 116 4.167 116 5.402 A 1.859 1.859 0 0 0 116 5.433 Q 116.016 6.337 116.9 8.302 A 26.919 26.919 0 0 1 118.936 13.704 A 35.389 35.389 0 0 1 119.95 19.752 A 166.332 166.332 0 0 1 120.109 21.788 A 148.653 148.653 0 0 1 120.5 32.402 Q 120.5 36.702 120.05 41.402 Q 119.6 46.102 119 50.402 Q 118.6 53.902 118.3 56.902 Q 118.103 58.871 118.036 60.366 A 31.957 31.957 0 0 0 118 61.802 A 20.487 20.487 0 0 0 118.02 62.727 Q 118.168 65.994 119.4 67.402 Z M 351.699 69.04 A 7.573 7.573 0 0 0 352.7 69.102 Q 356.2 69.102 358.25 66.702 A 8.244 8.244 0 0 0 359.962 63.394 A 10.967 10.967 0 0 0 360.3 60.602 Q 360.3 59.402 360.25 56.802 Q 360.2 54.202 360.1 51.702 A 35.895 35.895 0 0 1 360.374 48.14 Q 360.923 43.926 362.5 41.202 Q 364.7 37.402 367.6 37.402 A 3.821 3.821 0 0 1 369.693 37.996 A 4.644 4.644 0 0 1 370.8 39.002 A 1.611 1.611 0 0 0 371.02 39.243 A 1.134 1.134 0 0 0 371.5 39.502 A 4.231 4.231 0 0 0 371.673 39.542 Q 371.814 39.57 371.94 39.585 A 2.204 2.204 0 0 0 372.2 39.602 A 2.756 2.756 0 0 0 372.341 39.598 Q 373.605 39.534 374.845 38.307 A 9.276 9.276 0 0 0 375.75 37.252 A 10.214 10.214 0 0 0 376.112 36.734 A 8.148 8.148 0 0 0 377.5 32.202 A 6.378 6.378 0 0 0 377.342 30.731 A 3.871 3.871 0 0 0 375.7 28.302 Q 374.617 27.58 373.209 27.292 A 10.036 10.036 0 0 0 371.2 27.102 Q 367.2 27.102 364.55 29.452 A 14.009 14.009 0 0 0 364.434 29.556 Q 363.012 30.846 361.838 32.618 A 22.391 22.391 0 0 0 360.1 35.802 Q 360.1 33.664 359.673 31.986 A 9.232 9.232 0 0 0 358.75 29.652 Q 357.78 27.963 355.751 27.488 A 7.683 7.683 0 0 0 354 27.302 A 10.216 10.216 0 0 0 353.124 27.339 A 8.253 8.253 0 0 0 349.4 28.552 A 11.61 11.61 0 0 0 348.132 29.464 A 9.03 9.03 0 0 0 346.3 31.502 Q 345.677 32.465 345.407 33.331 A 4.266 4.266 0 0 0 345.2 34.602 A 2.438 2.438 0 0 0 345.249 35.101 A 1.634 1.634 0 0 0 345.75 36.002 Q 346.3 36.502 347 36.802 Q 348.6 37.302 349.7 38.252 A 3.16 3.16 0 0 1 349.909 38.45 Q 350.566 39.131 351.049 40.392 A 12.483 12.483 0 0 1 351.45 41.652 Q 352.1 44.102 352.1 49.402 A 46.511 46.511 0 0 1 352.041 51.736 A 53.596 53.596 0 0 1 351.35 57.952 Q 350.6 62.402 349.5 66.702 A 2.987 2.987 0 0 0 349.449 66.985 Q 349.307 68.064 350.15 68.552 A 3.43 3.43 0 0 0 350.769 68.829 Q 351.19 68.972 351.699 69.04 Z M 524.199 69.04 A 7.573 7.573 0 0 0 525.2 69.102 Q 528.7 69.102 530.75 66.702 A 8.244 8.244 0 0 0 532.462 63.394 A 10.967 10.967 0 0 0 532.8 60.602 Q 532.8 59.402 532.75 56.802 Q 532.7 54.202 532.6 51.702 A 35.895 35.895 0 0 1 532.874 48.14 Q 533.423 43.926 535 41.202 Q 537.2 37.402 540.1 37.402 A 3.821 3.821 0 0 1 542.193 37.996 A 4.644 4.644 0 0 1 543.3 39.002 A 1.611 1.611 0 0 0 543.52 39.243 A 1.134 1.134 0 0 0 544 39.502 A 4.231 4.231 0 0 0 544.173 39.542 Q 544.314 39.57 544.44 39.585 A 2.204 2.204 0 0 0 544.7 39.602 A 2.756 2.756 0 0 0 544.841 39.598 Q 546.105 39.534 547.345 38.307 A 9.276 9.276 0 0 0 548.25 37.252 A 10.214 10.214 0 0 0 548.612 36.734 A 8.148 8.148 0 0 0 550 32.202 A 6.378 6.378 0 0 0 549.842 30.731 A 3.871 3.871 0 0 0 548.2 28.302 Q 547.117 27.58 545.709 27.292 A 10.036 10.036 0 0 0 543.7 27.102 Q 539.7 27.102 537.05 29.452 A 14.009 14.009 0 0 0 536.934 29.556 Q 535.512 30.846 534.338 32.618 A 22.391 22.391 0 0 0 532.6 35.802 Q 532.6 33.664 532.173 31.986 A 9.232 9.232 0 0 0 531.25 29.652 Q 530.28 27.963 528.251 27.488 A 7.683 7.683 0 0 0 526.5 27.302 A 10.216 10.216 0 0 0 525.624 27.339 A 8.253 8.253 0 0 0 521.9 28.552 A 11.61 11.61 0 0 0 520.632 29.464 A 9.03 9.03 0 0 0 518.8 31.502 Q 518.177 32.465 517.907 33.331 A 4.266 4.266 0 0 0 517.7 34.602 A 2.438 2.438 0 0 0 517.749 35.101 A 1.634 1.634 0 0 0 518.25 36.002 Q 518.8 36.502 519.5 36.802 Q 521.1 37.302 522.2 38.252 A 3.16 3.16 0 0 1 522.409 38.45 Q 523.066 39.131 523.549 40.392 A 12.483 12.483 0 0 1 523.95 41.652 Q 524.6 44.102 524.6 49.402 A 46.511 46.511 0 0 1 524.541 51.736 A 53.596 53.596 0 0 1 523.85 57.952 Q 523.1 62.402 522 66.702 A 2.987 2.987 0 0 0 521.949 66.985 Q 521.807 68.064 522.65 68.552 A 3.43 3.43 0 0 0 523.269 68.829 Q 523.69 68.972 524.199 69.04 Z M 315.6 58.102 Q 320.1 58.102 323.75 56.852 A 16.113 16.113 0 0 0 326.853 55.427 A 12.318 12.318 0 0 0 329.6 53.202 Q 331.8 50.802 331.8 47.602 A 9.022 9.022 0 0 0 331.545 45.379 A 5.556 5.556 0 0 0 328.9 41.802 A 12.377 12.377 0 0 0 324.044 40.208 A 15.612 15.612 0 0 0 322.2 40.102 A 22.09 22.09 0 0 0 320.947 40.141 Q 320.342 40.175 319.656 40.241 A 49.724 49.724 0 0 0 318.2 40.402 Q 317.271 40.588 316.082 40.601 A 16.492 16.492 0 0 1 315.9 40.602 A 4.428 4.428 0 0 1 312.552 39.149 A 5.876 5.876 0 0 1 312.25 38.802 A 6.467 6.467 0 0 1 310.915 35.75 A 8.8 8.8 0 0 1 310.8 34.302 A 3.198 3.198 0 0 1 310.924 33.379 Q 311.231 32.358 312.303 31.967 A 3.239 3.239 0 0 1 312.5 31.902 A 31.438 31.438 0 0 0 317.235 30.285 Q 319.539 29.266 321.132 27.972 A 8.897 8.897 0 0 0 324.7 20.802 Q 324.7 15.432 318.379 14.639 A 19.178 19.178 0 0 0 316 14.502 Q 312.8 14.502 308.1 15.602 A 106.528 106.528 0 0 1 307.819 23.205 A 122.344 122.344 0 0 1 307.6 25.852 A 140.406 140.406 0 0 1 306.569 34.13 A 160.905 160.905 0 0 1 306.1 37.002 A 440.63 440.63 0 0 0 305.685 39.826 Q 305.527 40.93 305.393 41.911 A 209.543 209.543 0 0 0 305.15 43.752 A 59.207 59.207 0 0 0 304.966 45.368 Q 304.811 46.923 304.801 48.045 A 17.22 17.22 0 0 0 304.8 48.202 Q 304.8 53.602 307.5 55.852 A 8.529 8.529 0 0 0 310.244 57.345 Q 311.493 57.77 313.028 57.956 A 21.383 21.383 0 0 0 315.6 58.102 Z M 392.204 68.796 A 20.614 20.614 0 0 0 396.9 69.302 Q 403.5 69.302 408.45 66.102 Q 413.4 62.902 416.2 57.452 A 24.524 24.524 0 0 0 417.906 53.189 A 27.685 27.685 0 0 0 419 45.302 A 30.153 30.153 0 0 0 418.989 44.471 Q 418.768 36.468 414.25 31.902 A 14.683 14.683 0 0 0 412.577 30.448 Q 409.911 28.464 406.301 27.656 A 24.734 24.734 0 0 0 400.9 27.102 Q 394.6 27.102 390.1 29.252 A 64.629 64.629 0 0 0 389.25 29.666 Q 386.722 30.919 385.036 32.05 A 16.438 16.438 0 0 0 383.5 33.202 Q 382.6 33.902 381.65 35.252 Q 381.023 36.143 380.81 37.448 A 9.033 9.033 0 0 0 380.7 38.902 A 7.675 7.675 0 0 0 380.74 39.678 A 8.699 8.699 0 0 0 381.15 41.552 A 2.753 2.753 0 0 0 381.407 42.118 Q 381.886 42.902 382.8 42.902 A 1.296 1.296 0 0 0 382.814 42.902 Q 383.425 42.895 384.494 42.316 A 13.286 13.286 0 0 0 385.2 41.902 Q 383.6 44.702 382.65 47.902 Q 381.7 51.102 381.7 54.502 A 24.3 24.3 0 0 0 381.724 55.593 Q 381.829 57.914 382.385 59.847 A 11.954 11.954 0 0 0 385.85 65.552 A 14.067 14.067 0 0 0 392.204 68.796 Z M 26.3 58.102 A 22.507 22.507 0 0 0 35.239 56.213 A 26.319 26.319 0 0 0 36.15 55.802 Q 41 53.502 44.15 48.452 A 19.223 19.223 0 0 0 46.411 43.047 Q 47.022 40.681 47.213 37.907 A 37.937 37.937 0 0 0 47.3 35.302 Q 47.3 29.728 45.74 25.795 A 15.606 15.606 0 0 0 44.4 23.152 A 18.63 18.63 0 0 0 40.765 18.923 A 16.154 16.154 0 0 0 37.05 16.552 Q 32.6 14.502 27.7 14.502 Q 24 14.502 21.05 15.452 Q 18.1 16.402 15.8 17.502 A 45.126 45.126 0 0 0 13.583 21.337 Q 12.194 24.018 10.9 27.252 Q 8.6 33.002 8.6 39.402 A 26.972 26.972 0 0 0 8.952 43.886 Q 9.373 46.382 10.299 48.423 A 14.803 14.803 0 0 0 11.1 49.952 A 16.425 16.425 0 0 0 14.827 54.297 A 15.092 15.092 0 0 0 17.65 56.102 Q 21.7 58.102 26.3 58.102 Z M 142.9 67.352 A 5.305 5.305 0 0 0 143.415 67.792 Q 145.031 69.002 147.6 69.002 A 14.091 14.091 0 0 0 148.632 68.965 Q 149.729 68.885 150.655 68.627 A 6.904 6.904 0 0 0 152.85 67.602 A 12.253 12.253 0 0 0 153.078 67.434 Q 153.856 66.848 154.437 66.211 A 6.902 6.902 0 0 0 155.6 64.502 A 16.444 16.444 0 0 0 155.939 63.735 Q 156.239 63.003 156.344 62.49 A 2.472 2.472 0 0 0 156.4 62.002 A 2.125 2.125 0 0 0 156.397 61.882 Q 156.365 61.312 156.022 60.915 A 1.897 1.897 0 0 0 155.5 60.502 A 18.579 18.579 0 0 1 154.57 60.005 Q 153.836 59.584 153.24 59.143 A 8.99 8.99 0 0 1 152.1 58.152 A 3.716 3.716 0 0 1 151.424 57.159 Q 150.9 56.053 150.9 54.402 Q 150.9 53.002 151.1 51.402 Q 151.3 49.802 151.7 47.902 Q 152.2 45.302 152.7 42.252 Q 153.2 39.202 153.2 36.002 Q 153.2 33.902 152.8 31.902 Q 152.4 29.902 151.25 28.602 A 3.355 3.355 0 0 0 150.232 27.827 Q 149.67 27.544 148.949 27.414 A 7.59 7.59 0 0 0 147.6 27.302 A 9.046 9.046 0 0 0 146.53 27.365 A 9.507 9.507 0 0 0 143.15 28.452 A 13.16 13.16 0 0 0 141.6 29.419 A 10.085 10.085 0 0 0 139.7 31.202 A 8.183 8.183 0 0 0 139.174 31.923 Q 138.839 32.442 138.649 32.939 A 3.527 3.527 0 0 0 138.4 34.202 A 3.029 3.029 0 0 0 138.4 34.222 Q 138.408 35.408 139.35 36.152 Q 140.3 36.902 141.6 37.602 Q 143.3 38.402 143.8 40.052 Q 144.3 41.702 144.3 43.502 A 28.635 28.635 0 0 1 144.265 44.941 A 24.4 24.4 0 0 1 143.85 48.402 Q 143.4 50.702 142.7 52.902 Q 142.1 55.002 141.65 57.202 Q 141.2 59.402 141.2 61.702 Q 141.2 64.139 141.831 65.704 A 4.716 4.716 0 0 0 142.9 67.352 Z M 400 59.102 A 13.136 13.136 0 0 0 404.547 58.339 A 11.723 11.723 0 0 0 408.45 55.952 A 10.427 10.427 0 0 0 411.832 49.024 A 14.464 14.464 0 0 0 411.9 47.602 Q 411.9 43.783 410.15 41.514 A 7.148 7.148 0 0 0 408.4 39.902 A 14.039 14.039 0 0 0 401.711 37.658 A 17.435 17.435 0 0 0 400.3 37.602 Q 398.2 37.602 396.5 38.002 A 22.949 22.949 0 0 0 393.87 38.784 A 20.479 20.479 0 0 0 393.3 39.002 A 24.924 24.924 0 0 0 391.517 41.988 A 29.607 29.607 0 0 0 390.8 43.502 A 13.128 13.128 0 0 0 389.739 47.895 A 15.641 15.641 0 0 0 389.7 49.002 Q 389.7 54.002 392.7 56.552 Q 395.7 59.102 400 59.102 Z M 263.7 42.202 L 285.3 42.202 A 4.055 4.055 0 0 1 285.816 42.232 Q 286.373 42.304 286.666 42.546 A 0.875 0.875 0 0 1 286.85 42.752 A 1.849 1.849 0 0 1 287.053 43.207 Q 287.188 43.649 287.199 44.285 A 6.64 6.64 0 0 1 287.2 44.402 A 10.568 10.568 0 0 1 287.165 45.229 Q 287.097 46.086 286.9 47.202 Q 286.6 48.902 285.9 50.202 A 3.21 3.21 0 0 1 285.467 50.83 A 1.901 1.901 0 0 1 284 51.502 L 275.1 51.502 Q 271.6 51.502 268.7 51.802 Q 265.8 52.102 263.9 52.402 A 24.688 24.688 0 0 1 263.194 52.533 Q 262.434 52.662 261.905 52.693 A 5.336 5.336 0 0 1 261.6 52.702 Q 260.239 52.702 260.113 50.312 A 9.737 9.737 0 0 1 260.1 49.802 A 18.335 18.335 0 0 1 260.289 47.224 A 21.46 21.46 0 0 1 260.45 46.252 Q 260.753 44.651 261.393 43.537 A 5.905 5.905 0 0 1 261.6 43.202 A 1.556 1.556 0 0 1 261.764 43 Q 261.949 42.803 262.251 42.587 A 5.492 5.492 0 0 1 262.3 42.552 Q 262.683 42.284 263.299 42.221 A 3.955 3.955 0 0 1 263.7 42.202 Z M 147.5 18.302 Q 144.7 18.202 143 16.602 A 5.219 5.219 0 0 1 141.501 13.942 A 7.936 7.936 0 0 1 141.3 12.102 A 8.133 8.133 0 0 1 141.744 9.63 A 6.68 6.68 0 0 1 143.4 7.052 Q 145.303 5.197 148.2 5.197 A 9.299 9.299 0 0 1 148.5 5.202 Q 151.4 5.302 153.05 6.902 A 4.968 4.968 0 0 1 154.438 9.451 Q 154.606 10.201 154.606 11.075 A 9.494 9.494 0 0 1 154.6 11.402 A 8.091 8.091 0 0 1 154.14 13.905 A 6.787 6.787 0 0 1 152.6 16.352 A 6.33 6.33 0 0 1 149.041 18.176 A 9.061 9.061 0 0 1 147.5 18.302 Z M 234.7 45.802 A 14.298 14.298 0 0 0 237.33 45.573 Q 239.238 45.216 240.7 44.302 Q 243.1 42.802 243.1 40.502 Q 243.1 38.602 241.5 37.552 A 5.715 5.715 0 0 0 239.937 36.853 Q 239.214 36.645 238.349 36.56 A 12.831 12.831 0 0 0 237.1 36.502 A 11.818 11.818 0 0 0 233.45 37.048 A 10.264 10.264 0 0 0 230.65 38.452 A 10.47 10.47 0 0 0 227.068 42.948 A 13.189 13.189 0 0 0 226.7 43.902 A 8.705 8.705 0 0 0 228.078 44.613 Q 228.786 44.906 229.624 45.134 A 16.679 16.679 0 0 0 230.3 45.302 Q 232.5 45.802 234.7 45.802 Z M 492.9 45.802 A 14.298 14.298 0 0 0 495.53 45.573 Q 497.438 45.216 498.9 44.302 Q 501.3 42.802 501.3 40.502 Q 501.3 38.602 499.7 37.552 A 5.715 5.715 0 0 0 498.137 36.853 Q 497.414 36.645 496.549 36.56 A 12.831 12.831 0 0 0 495.3 36.502 A 11.818 11.818 0 0 0 491.65 37.048 A 10.264 10.264 0 0 0 488.85 38.452 A 10.47 10.47 0 0 0 485.268 42.948 A 13.189 13.189 0 0 0 484.9 43.902 A 8.705 8.705 0 0 0 486.278 44.613 Q 486.986 44.906 487.824 45.134 A 16.679 16.679 0 0 0 488.5 45.302 Q 490.7 45.802 492.9 45.802 Z" vector-effect="non-scaling-stroke"/></g></svg>